PathFileType  4	(X/Y/Z) /Users/kristensteudel/Documents/NMBL_Research/BertecForceProcessing/anc_files/
DataRate	CameraRate	NumFrames	NumMarkers	Units	OrigDataRate	OrigDataStartFrame	OrigNumFrames
  200.0		  200.0		    4		     46		 mm	  200.0	      299	    477
Frame#	Time	r_knee			r_shank_antsup			r_ankle			r_calc			r_5meta			r_toe			L_knee			L_shank_antsup			L_ankle			L_calc			L_5meta			L_toe			r_sh2			r_sh3			r_sh4			L_sh2			L_sh3			r_thigh1			r_thigh2			r_thigh3			r_thigh4			r_thigh5			L_thigh1			L_thigh2			L_thigh3			L_thigh4			r.ASIS			r.PSIS			L.ASIS			L.PSIS			C7			R_Shoulder			L_Shoulder			Sternum			R_humerus			R_elbow_med			R_elbow_lat			R_forearm			R_wrist_radius			R_wrist_ulna			L_humerus			L_elbow_med			L_elbow_lat			L_forearm			L_wrist_radius			L_wrist_ulna			
		X1	Y1	Z1	X2	Y2	Z2	X3	Y3	Z3	X4	Y4	Z4	X5	Y5	Z5	X6	Y6	Z6	X7	Y7	Z7	X8	Y8	Z8	X9	Y9	Z9	X10	Y10	Z10	X11	Y11	Z11	X12	Y12	Z12	X13	Y13	Z13	X14	Y14	Z14	X15	Y15	Z15	X16	Y16	Z16	X17	Y17	Z17	X18	Y18	Z18	X19	Y19	Z19	X20	Y20	Z20	X21	Y21	Z21	X22	Y22	Z22	X23	Y23	Z23	X24	Y24	Z24	X25	Y25	Z25	X26	Y26	Z26	X27	Y27	Z27	X28	Y28	Z28	X29	Y29	Z29	X30	Y30	Z30	X31	Y31	Z31	X32	Y32	Z32	X33	Y33	Z33	X34	Y34	Z34	X35	Y35	Z35	X36	Y36	Z36	X37	Y37	Z37	X38	Y38	Z38	X39	Y39	Z39	X40	Y40	Z40	X41	Y41	Z41	X42	Y42	Z42	X43	Y43	Z43	X44	Y44	Z44	X45	Y45	Z45	X46	Y46	Z46	

299	1.49500	755.882	507.960	-179.469	727.149	382.664	-181.859	531.968	133.654	-243.317	448.571	127.195	-306.553	610.803	34.959	-203.076	660.723	47.648	-263.459	1135.199	678.615	-475.070	1047.617	610.315	-474.880	731.932	588.585	-454.348	682.725	637.015	-407.681	724.064	425.889	-470.476	743.796	400.911	-398.100	665.091	283.649	-204.045	664.560	413.379	-156.743	596.179	328.654	-192.662	1031.229	694.416	-504.300	913.313	666.128	-483.523	863.113	716.690	-127.549	841.547	607.558	-161.162	793.082	580.616	-154.311	750.457	729.272	-119.707	737.360	617.232	-154.597	1050.574	885.737	-454.499	1148.326	785.597	-447.886	975.324	816.403	-513.785	1068.403	714.449	-488.978	882.308	1002.282	-155.063	675.796	1055.054	-255.013	887.530	1005.058	-428.836	679.441	1051.783	-357.276	836.398	1545.518	-273.704	934.350	1472.969	-87.279	870.151	1526.032	-478.747	969.756	1410.896	-311.053	927.921	1238.339	-37.708	819.203	1105.763	-63.234	846.480	1130.902	19.572	1013.228	1151.329	-48.025	1105.670	1162.501	-100.088	1111.527	1112.738	-87.642	684.533	1391.149	-580.935	528.465	1382.174	-536.949	577.857	1400.614	-616.606	605.569	1230.261	-618.034	656.809	1135.381	-575.610	591.976	1126.524	-609.938
300	1.50000	735.489	509.866	-177.880	702.112	385.980	-179.974	498.483	141.316	-240.047	415.981	140.413	-303.031	572.873	36.088	-201.615	622.400	47.424	-262.554	1147.183	693.719	-470.225	1065.652	618.505	-470.096	752.296	565.775	-456.001	697.765	609.305	-410.224	761.427	402.873	-471.709	782.898	380.010	-398.308	636.243	289.213	-201.547	640.980	419.687	-154.668	569.269	336.845	-190.488	1042.864	701.272	-497.990	927.274	662.204	-480.613	855.157	714.236	-129.372	828.074	605.885	-162.045	777.453	583.391	-153.723	743.350	731.423	-118.881	724.389	620.182	-153.124	1052.653	897.544	-452.664	1154.697	801.761	-443.468	980.771	823.480	-510.922	1078.960	726.858	-484.059	885.542	1000.041	-156.624	678.765	1055.984	-253.480	888.257	1007.255	-430.193	681.168	1052.663	-356.826	835.330	1547.154	-273.171	939.020	1476.487	-91.776	864.769	1530.376	-477.052	968.085	1412.665	-314.842	935.889	1242.984	-38.943	830.959	1108.181	-62.353	857.807	1135.013	20.572	1022.071	1165.909	-52.164	1111.688	1183.574	-107.347	1121.121	1134.207	-94.652	677.204	1401.967	-580.691	521.902	1394.834	-534.582	570.889	1413.412	-614.953	599.986	1243.968	-616.650	653.532	1149.941	-574.785	587.723	1140.301	-607.927
301	1.50500	716.397	513.806	-176.422	678.178	391.338	-176.889	466.628	150.355	-236.277	385.957	154.654	-299.243	535.069	37.558	-200.689	584.631	47.496	-261.594	1157.741	708.232	-466.018	1082.960	625.477	-466.143	774.929	542.451	-456.998	716.095	580.340	-412.427	801.474	380.673	-472.156	823.617	360.945	-398.608	608.882	296.272	-197.955	618.111	427.494	-153.034	543.540	346.312	-187.749	1053.670	706.893	-491.569	941.274	656.566	-477.444	847.523	712.342	-132.102	814.835	605.513	-162.710	763.707	584.356	-154.111	737.146	734.544	-117.633	711.908	624.419	-151.242	1054.172	908.477	-451.103	1159.726	816.820	-439.441	985.235	829.917	-508.391	1088.077	738.523	-479.903	889.392	999.532	-160.451	682.128	1057.081	-252.073	888.490	1010.543	-431.629	683.150	1053.426	-355.763	834.234	1548.440	-272.934	943.091	1480.432	-96.230	859.538	1534.705	-475.522	966.465	1414.975	-318.732	943.452	1248.625	-39.485	841.528	1111.487	-61.152	868.455	1139.948	21.884	1028.808	1180.316	-55.689	1115.140	1203.198	-113.074	1127.877	1154.834	-99.551	670.195	1412.852	-580.126	515.513	1407.710	-532.013	564.197	1426.294	-612.800	594.963	1257.814	-615.160	650.227	1164.312	-573.865	584.208	1153.948	-605.861
302	1.51000	698.163	519.194	-174.661	654.898	398.187	-173.799	437.015	160.006	-232.054	358.851	169.950	-295.607	498.080	39.357	-198.989	547.248	47.807	-260.337	1166.620	721.924	-462.702	1099.675	631.711	-462.978	799.897	519.253	-458.158	736.872	550.557	-413.485	843.183	360.518	-472.171	866.767	343.627	-398.856	582.913	304.882	-193.538	595.938	436.230	-150.353	519.129	357.054	-184.769	1062.613	710.454	-485.477	956.031	650.012	-475.191	840.492	711.334	-134.446	802.127	606.266	-163.474	750.966	586.389	-154.634	731.683	738.102	-115.997	700.579	629.580	-149.143	1055.492	918.335	-449.808	1163.814	830.267	-436.144	989.919	836.439	-506.238	1096.339	749.796	-476.871	893.125	999.956	-164.481	685.503	1058.173	-250.126	888.918	1013.982	-433.314	684.656	1054.577	-353.939	833.261	1549.746	-272.808	946.555	1484.517	-100.462	854.956	1538.823	-474.148	964.691	1417.807	-322.475	950.365	1254.403	-40.677	851.334	1115.639	-59.484	878.371	1145.217	23.591	1033.928	1194.608	-59.067	1116.925	1223.051	-116.239	1132.309	1175.026	-105.759	664.036	1423.863	-579.331	509.990	1419.784	-529.168	558.130	1438.868	-610.240	590.412	1271.504	-613.571	647.939	1178.460	-572.823	581.298	1167.447	-603.805
